<svg xmlns="http://www.w3.org/2000/svg" viewBox="0 0 64 64"><path fill="#c5e4fa" d="M31 3A28 28 0 1 0 31 59A28 28 0 1 0 31 3Z"/><path fill="#e3f2ff" d="M12.71 52.29a28 28 0 0 0 9.18 5.82L56 24V17.57a28.1 28.1 0 0 0-3.71-4.86zM10.76 50.24L50 11H44L8.22 46.78A28.08 28.08 0 0 0 10.76 50.24zM7.79 43.21L41 10 38 8 6.36 39.64A27.81 27.81 0 0 0 7.79 43.21z"/><path fill="#72caaf" d="M31,3A28,28,0,1,0,59,31,28,28,0,0,0,31,3Zm0,50A22,22,0,1,1,46.17,15.07l.68.67q.39.4.75.82A22,22,0,0,1,31,53Z"/><path fill="#66bfa1" d="M31,53A22,22,0,0,1,9,31H7.34a4,4,0,0,0-3.95,4.71,28,28,0,0,0,55.21,0A4,4,0,0,0,54.66,31H53A22,22,0,0,1,31,53Z"/><path fill="#8d6c9f" d="M31,2A29,29,0,1,0,60,31,29,29,0,0,0,31,2Zm0,56A27,27,0,1,1,58,31,27,27,0,0,1,31,58Z"/><path fill="#ed7899" d="M31,18a1,1,0,0,0,1-1V15a1,1,0,0,0-2,0v2A1,1,0,0,0,31,18Z"/><path fill="#8d6c9f" d="M15,30a1,1,0,0,0,0,2h2a1,1,0,0,0,0-2Z"/><path fill="#ed7899" d="M48,31a1,1,0,0,0-1-1H45a1,1,0,0,0,0,2h2A1,1,0,0,0,48,31Z"/><path fill="#8d6c9f" d="M30,45v2a1,1,0,0,0,2,0V45a1,1,0,0,0-2,0Z"/><path fill="#ed7899" d="M35.87 18.95a1 1 0 0 0 1.3-.55l.75-1.85a1 1 0 0 0-1.85-.75l-.75 1.85A1 1 0 0 0 35.87 18.95zM45.46 37.92a1 1 0 0 0 .75-1.85l-1.85-.75a1 1 0 0 0-.75 1.85zM40 20.23a1 1 0 0 0 1.44 1.39l1.39-1.44A1 1 0 0 0 41.4 18.8zM41.77 40a1 1 0 0 0-1.41 0 1 1 0 0 0-.25.56 1 1 0 0 0 .19 1.12L41.61 43A1 1 0 0 0 43 43a.39.39 0 0 1 .21-.21 1 1 0 0 0 0-1.41zM45.21 23.58l-1.83.81a1 1 0 1 0 .81 1.83L46 25.41a1 1 0 1 0-.81-1.83z"/><path fill="#8d6c9f" d="M38.5,39.5a1,1,0,0,0,.71-1.71l-6.28-6.28A1.94,1.94,0,0,0,32,29.28V21a1,1,0,0,0-2,0v8.28a2,2,0,0,0,1.51,3.65l6.28,6.28A1,1,0,0,0,38.5,39.5Z"/><path fill="#8d6c9f" d="M31,54A23,23,0,1,1,34.36,8.24a1,1,0,0,1-.29,2A21.28,21.28,0,0,0,31,10a21,21,0,1,0,13,4.48,1,1,0,0,1,1.24-1.57A23,23,0,0,1,31,54Z"/><path fill="#8d6c9f" d="M41,12.4a1,1,0,0,1-.45-.11,21,21,0,0,0-2.31-1,1,1,0,0,1,.69-1.88,23,23,0,0,1,2.53,1.11A1,1,0,0,1,41,12.4Z"/></svg>