<svg xmlns="http://www.w3.org/2000/svg" viewBox="0 0 64 64"><path fill="#c2cde7" d="M43,7V57a2,2,0,0,1-2,2H7a2,2,0,0,1-.91-.22A2,2,0,0,1,5,57V7A2,2,0,0,1,7,5H41a2,2,0,0,1,.56.08A2,2,0,0,1,43,7Z"/><path fill="#ced9ed" d="M43.56 23.44L43 24 10.22 56.78H6.09A2 2 0 0 1 5 55V48L43 10zM42.38 6.19L5 43.56 5 37 37 5 41.5 5 41.56 5.08 42.38 6.19zM32 5L5 32 5 28 28 5 32 5z"/><path fill="#acb7d0" d="M43,58.56h0a1,1,0,0,1-1,1H6a1,1,0,0,1-1-1H5a4,4,0,0,1,4-4H39A4,4,0,0,1,43,58.56Z"/><path fill="#edf0f4" d="M14.5 12L15.74 14.26 18 15.5 15.74 16.74 14.5 19 13.26 16.74 11 15.5 13.26 14.26 14.5 12zM34 40.16L34.85 41.73 36.42 42.58 34.85 43.44 34 45 33.15 43.44 31.58 42.58 33.15 41.73 34 40.16zM14.65 45L15.23 46.06 16.3 46.65 15.23 47.23 14.65 48.3 14.06 47.23 13 46.65 14.06 46.06 14.65 45z"/><path fill="#8d6c9f" d="M9 52a1 1 0 0 0-1 1v2a1 1 0 0 0 2 0V53A1 1 0 0 0 9 52zM14 52a1 1 0 0 0-1 1v2a1 1 0 0 0 2 0V53A1 1 0 0 0 14 52zM18 53v2a1 1 0 0 0 2 0V53a1 1 0 0 0-2 0zM24 56a1 1 0 0 0 1-1V53a1 1 0 0 0-2 0v2A1 1 0 0 0 24 56zM29 56a1 1 0 0 0 1-1V53a1 1 0 0 0-2 0v2A1 1 0 0 0 29 56zM34 56a1 1 0 0 0 1-1V53a1 1 0 0 0-2 0v2A1 1 0 0 0 34 56zM39 56a1 1 0 0 0 1-1V53a1 1 0 0 0-2 0v2A1 1 0 0 0 39 56z"/><path fill="#8d6c9f" d="M44,7a3,3,0,0,0-3-3H7A3,3,0,0,0,4,7V57a3,3,0,0,0,3,3H41a3,3,0,0,0,3-3ZM42,57a1,1,0,0,1-1,1H7a1,1,0,0,1-1-1V7A1,1,0,0,1,7,6H41a1,1,0,0,1,1,1Z"/><path fill="#faefde" d="M21 29L52 29 48 25 52 21 63 32 52 43 48 39 52 35 21 35 21 29z"/><path fill="#8d6c9f" d="M63.71,31.29l-11-11a1,1,0,0,0-1.41,0l-4,4a1,1,0,0,0,0,1.41L49.59,28H21a1,1,0,0,0-1,1v6a1,1,0,0,0,1,1H49.59l-2.29,2.29a1,1,0,0,0,0,1.41l4,4a1,1,0,0,0,1.41,0l11-11A1,1,0,0,0,63.71,31.29ZM52,41.59,49.41,39l3.29-3.29A1,1,0,0,0,52,34H22V30H52a1,1,0,0,0,.71-1.71L49.41,25,52,22.41,61.59,32Z"/></svg>