<svg xmlns="http://www.w3.org/2000/svg" viewBox="0 0 40 40"><path fill="#dff0fe" d="M2.5 37.5L2.5 2.5 29.486 2.5 37.5 10.515 37.5 37.5z"/><path fill="#4788c7" d="M29.279,3L37,10.722V37H3V3H29.279 M29.693,2H2v36h36V10.308L29.693,2L29.693,2z"/><path fill="#fff" d="M6.5 19.5H33.5V37.5H6.5z"/><path fill="#4788c7" d="M33 20v17H7V20H33M34 19H6v19h28V19L34 19zM26 2H10v10c0 1.105.895 2 2 2h14V2z"/><path fill="#b6dcfe" d="M13,13.5c-0.827,0-1.5-0.673-1.5-1.5V4c0-0.827,0.673-1.5,1.5-1.5h15.5V12 c0,0.827-0.673,1.5-1.5,1.5H13z"/><path fill="#4788c7" d="M28 3v9c0 .551-.449 1-1 1H13c-.551 0-1-.449-1-1V4c0-.551.449-1 1-1H28M29 2H13c-1.105 0-2 .895-2 2v8c0 1.105.895 2 2 2h14c1.105 0 2-.895 2-2V2L29 2zM29.5 25h-19c-.276 0-.5-.224-.5-.5v0c0-.276.224-.5.5-.5h19c.276 0 .5.224.5.5v0C30 24.776 29.776 25 29.5 25zM29.5 29h-19c-.276 0-.5-.224-.5-.5v0c0-.276.224-.5.5-.5h19c.276 0 .5.224.5.5v0C30 28.776 29.776 29 29.5 29zM29.5 33h-19c-.276 0-.5-.224-.5-.5l0 0c0-.276.224-.5.5-.5h19c.276 0 .5.224.5.5l0 0C30 32.776 29.776 33 29.5 33z"/><path fill="#4788c7" d="M23 5H25V11H23z"/></svg>