<svg xmlns="http://www.w3.org/2000/svg" viewBox="0 0 64 64"><path fill="#85cbf8" d="M31 3A28 28 0 1 0 31 59A28 28 0 1 0 31 3Z"/><path fill="#7bbeeb" d="M31,3V59A28,28,0,0,0,31,3Z"/><path fill="#9fddff" d="M16,31c0-11.05,3.88-20.94,10-27.54a28,28,0,0,0,0,55.08C19.88,51.94,16,42.05,16,31Z"/><path fill="#75b8e5" d="M46,31c0,11.05-3.88,20.94-10,27.54A28,28,0,0,0,36,3.46C42.1,10.06,46,19.95,46,31Z"/><path fill="#72caaf" d="M58.67 28.35a41.09 41.09 0 0 0-3.83 4.86A8.94 8.94 0 0 0 55 37.51a8.92 8.92 0 0 0 1.62 1.77L59 35zM57.83 27.19a4.46 4.46 0 0 1-2.7-1.31A1.64 1.64 0 0 1 55 24.61a5.84 5.84 0 0 1 1.49-2.79.44.44 0 0 1 .26-.16L59 25zM9.32 13.51c2.24.78 2.83 3.58 3.39 5.88C13.58 22.92 17 28 17 28l1-2a20.66 20.66 0 0 0 2.39 3.77A14.69 14.69 0 0 0 24 33c2.35 1.12 4.65 1.28 7 2.4a1.57 1.57 0 0 1 .7.51c.39.61-.17 1.34-.55 2a4.14 4.14 0 0 0 .2 4.52c1 1.36 2.86 2.11 3.35 3.73a5.1 5.1 0 0 1 .05 2q-.53 4.79-1.48 9.53a.88.88 0 0 0 0 .52c.13.3.54.35.87.3a5.08 5.08 0 0 0 2.43-1.54q4.35-4.14 8.6-8.37a9.1 9.1 0 0 0 2.21-2.89 15.35 15.35 0 0 1 .86-2.36c.28-.45.68-.82.93-1.28a1.31 1.31 0 0 0 0-1.49 1.74 1.74 0 0 0-.88-.42L42.9 38.72c.51-1.29-.78-2.57-2-3.19a12.09 12.09 0 0 0-8-.93 11.59 11.59 0 0 0-1.86.8l-1.69-.67s.13-1.91-.28-2.22-1.23-.09-1.45-.58.55-1 .4-1.56-1.52 0-1.95.05A1.85 1.85 0 0 1 24 28c.32-1.29 1.19-1.57 2.5-1.78 1.56-.26 3.41.24 4.07 1.68a7.77 7.77 0 0 1 1.9-5c1.16-1.42 2.14-1.8 3.7-2.77-.18-.13 2.43-.47 3.52-.86.54-.19 1.21-.64 1-1.17s-1.1-.35-1.51.1-2.73.06-3.24-.29-.18-1 .81-1a2.25 2.25 0 0 0 2.19-2c0-.38-1-2.94-2-2.94-.74 0-2.44 1.53-3.12.42a1 1 0 0 0-1.94.33 4.62 4.62 0 0 1-1 3.28l-5-2.86a1.83 1.83 0 0 1-.79-.69c-.36-.72.32-1.5 1-2 1.54-1.12 3-2.29 4.47-3.37s3-.34 2.77 2c3.3.39 3.51-1 2.65-2.05.9.33 3.77 1.07 5 4 .2.49.67 4.22 2.76 4.73 1.16.28 1.86-1.24 2.39-2a7.86 7.86 0 0 1 4.46-2.42L41 5 33 3l-6.19.56-1.44 1.5 1.86.32s-2.48 1.31-2.86 1.49c-.09 0-.33 1.28-.6 1.28A19.21 19.21 0 0 1 18 7z"/><path fill="#8d6c9f" d="M31,2A29,29,0,1,0,60,31,29,29,0,0,0,31,2ZM57.56,26.16a4.11,4.11,0,0,1-1.6-.84.93.93,0,0,1,0-.5A4.86,4.86,0,0,1,56.8,23,26.78,26.78,0,0,1,57.56,26.16ZM24.43,5.38a1,1,0,0,0,.14.28L23.93,6a1.37,1.37,0,0,0-.66,1l-.06.19a16.11,16.11,0,0,1-3.46-.68,26.78,26.78,0,0,1,4.65-1.65A1,1,0,0,0,24.43,5.38ZM17.37,7.71a1,1,0,0,0,.37.22,19.94,19.94,0,0,0,6,1.23c.89,0,1.19-.9,1.4-1.57L27.7,6.27a1,1,0,0,0-.3-1.87h0l.14-.14,0,0A26.82,26.82,0,0,1,48.9,10.81a7.61,7.61,0,0,0-3.62,2.41c-.1.14-.2.3-.31.47-.25.39-.76,1.2-1,1.13-1.13-.28-1.68-2.6-1.89-3.47a5.54,5.54,0,0,0-.19-.67,8.1,8.1,0,0,0-5.29-4.44l-.25-.09A1,1,0,0,0,35.2,7.72c.15.19.21.35.23.32a1.84,1.84,0,0,1-1.11.18A2.81,2.81,0,0,0,33,6a2.78,2.78,0,0,0-3,.37c-.73.54-1.47,1.1-2.21,1.66s-1.5,1.14-2.26,1.7c-1.3,1-1.79,2.19-1.27,3.23A2.72,2.72,0,0,0,25.42,14l5,2.86a1,1,0,0,0,1.27-.23,5.61,5.61,0,0,0,1.26-3.84l.08.11c.93,1.5,2.62.69,3.43.31l.48-.23a5.59,5.59,0,0,1,1,2,.94.94,0,0,1-.34.58,1.23,1.23,0,0,1-.76.38A1.87,1.87,0,0,0,34.82,17a1.46,1.46,0,0,0,.59,1.7,3.23,3.23,0,0,0,.77.33,1.5,1.5,0,0,0-.72.36l-.68.41a9.87,9.87,0,0,0-3,2.44,9.56,9.56,0,0,0-1.87,3.54,5.62,5.62,0,0,0-3.5-.53c-1,.17-2.8.47-3.3,2.53a3,3,0,0,0,.68,2.75,2.7,2.7,0,0,0,2.45.85l.4-.08h0a1.49,1.49,0,0,0,.07,1,1.77,1.77,0,0,0,1.53,1h.08v.08l-.53-.15a19.74,19.74,0,0,1-3.34-1.14,12.64,12.64,0,0,1-3-2.7l-.28-.3a19.77,19.77,0,0,1-2.23-3.54A1,1,0,0,0,18,25h0a1,1,0,0,0-.89.55L16.9,26a28.72,28.72,0,0,1-3.21-6.82l-.07-.29c-.49-2-1.1-4.43-2.86-5.7A27.18,27.18,0,0,1,17.37,7.71ZM4,31A26.86,26.86,0,0,1,9.49,14.71c1.25.82,1.75,2.82,2.18,4.62l.07.29c.9,3.67,4.28,8.72,4.43,8.94a1,1,0,0,0,1.72-.11l.15-.29a14.45,14.45,0,0,0,1.62,2.29l.27.3a13.65,13.65,0,0,0,3.64,3.16,21.74,21.74,0,0,0,3.66,1.26c.59.16,1.16.32,1.72.5l1.65.65.21.11a4.05,4.05,0,0,1-.38.7l-.13.21A5.15,5.15,0,0,0,30.54,43a9.39,9.39,0,0,0,1.62,1.59,4.35,4.35,0,0,1,1.57,1.83,4.27,4.27,0,0,1,0,1.63c-.35,3.16-.85,6.33-1.47,9.44a2.49,2.49,0,0,0-.06.5c-.4,0-.81,0-1.22,0A27,27,0,0,1,4,31Zm28.71,4.7.37-.13a11.17,11.17,0,0,1,7.35.85c.92.46,1.78,1.32,1.54,1.93a1,1,0,0,0,.68,1.33L48,41.09l.37.09a.62.62,0,0,1-.09.37,4.19,4.19,0,0,1-.4.55,6.53,6.53,0,0,0-.51.7,6.6,6.6,0,0,0-.66,1.68,8.25,8.25,0,0,1-.27.83,8.4,8.4,0,0,1-2,2.55c-2.83,2.81-5.72,5.62-8.59,8.35a5.58,5.58,0,0,1-1.53,1.15c.59-3,1.06-6.07,1.4-9.11a6.07,6.07,0,0,0-.09-2.42A6,6,0,0,0,33.44,43a7.8,7.8,0,0,1-1.29-1.24,3.15,3.15,0,0,1-.15-3.4l.12-.19A2.83,2.83,0,0,0,32.71,35.7Zm5.07,21.44c2.7-2.58,5.42-5.22,8.08-7.86a10.07,10.07,0,0,0,2.43-3.22,10.2,10.2,0,0,0,.34-1,5,5,0,0,1,.45-1.19,4.71,4.71,0,0,1,.36-.49,5.83,5.83,0,0,0,.59-.84,2.3,2.3,0,0,0-.16-2.64,2.64,2.64,0,0,0-1.36-.71L44,38a4.47,4.47,0,0,0-2.7-3.34,13,13,0,0,0-8.69-1,9.23,9.23,0,0,0-1.66.67L30.34,34c0-1.78-.5-2.16-.7-2.32a2,2,0,0,0-.85-.36A1.74,1.74,0,0,0,29,30.1c-.34-1.24-1.87-.92-2.77-.73l-.29.06a.72.72,0,0,1-.67-.22,1,1,0,0,1-.21-.92c.15-.62.38-.82,1.69-1,1.12-.19,2.55.14,3,1.11a1,1,0,0,0,1.91-.45,6.74,6.74,0,0,1,1.68-4.38,7.92,7.92,0,0,1,2.5-2l1-.57h0l.9-.19a19,19,0,0,0,2.42-.58,2.72,2.72,0,0,0,1.56-1.26,1.55,1.55,0,0,0,0-1.22,1.51,1.51,0,0,0-1.17-.94,2.29,2.29,0,0,0-1.87.6h-.07A3.73,3.73,0,0,0,39,17a2.82,2.82,0,0,0,1-2.11c0-.47-1-3.89-3-3.89a3.41,3.41,0,0,0-1.41.45,4.78,4.78,0,0,1-.91.37,2,2,0,0,0-2.35-.9,2,2,0,0,0-1.39,1.92,3.64,3.64,0,0,1-.35,1.86L26.41,12.3a4.52,4.52,0,0,1-.39-.24,1.62,1.62,0,0,1,.66-.76c.78-.57,1.54-1.15,2.3-1.73s1.46-1.11,2.18-1.64c.34-.25.68-.34.87-.24s.38.58.31,1.36a1,1,0,0,0,.88,1.08c2.08.25,3.41-.13,4-1.11a1.83,1.83,0,0,0,.15-.34A5.35,5.35,0,0,1,40,11.42c0,.08.06.21.1.39.31,1.31,1,4.38,3.36,5,1.66.4,2.66-1.16,3.19-2l.25-.39a6.77,6.77,0,0,1,3.61-2l.09.07A27.06,27.06,0,0,1,56,20.91a2,2,0,0,0-.25.22A6.8,6.8,0,0,0,54,24.4a2.63,2.63,0,0,0,.26,2,5.48,5.48,0,0,0,3.2,1.72,35.27,35.27,0,0,0-3.57,4.62c-.4.84-.42,4.26.21,5.25a9.93,9.93,0,0,0,1.81,2,1,1,0,0,0,.42.2A27.12,27.12,0,0,1,37.78,57.14ZM57,38.28A7.19,7.19,0,0,1,55.84,37a10,10,0,0,1-.13-3.3,24.57,24.57,0,0,1,2.28-3c0,.11,0,.23,0,.34A26.92,26.92,0,0,1,57,38.28Z"/><path fill="#8d6c9f" d="M16.86 43.73l-1.41 1.42a1 1 0 0 0 1.42 1.41l1.41-1.42a1 1 0 0 0-1.42-1.41zM22.1 46.67a1 1 0 0 0-1.37.37l-1 1.73a1 1 0 1 0 1.73 1l1-1.73A1 1 0 0 0 22.1 46.67zM13.48 35.43a1 1 0 0 0-1.22-.71l-1.93.52a1 1 0 1 0 .52 1.93l1.93-.52A1 1 0 0 0 13.48 35.43zM26.57 48.52a1 1 0 0 0-1.22.71l-.52 1.93a1 1 0 1 0 1.93.52l.52-1.93A1 1 0 0 0 26.57 48.52zM15.33 39.9A1 1 0 0 0 14 39.53l-1.73 1a1 1 0 0 0 1 1.73l1.73-1A1 1 0 0 0 15.33 39.9z"/></svg>