<svg xmlns="http://www.w3.org/2000/svg" viewBox="0 0 40 40"><path fill="#dff0fe" d="M13,34.5C6.659,34.5,1.5,29.341,1.5,23S6.659,11.5,13,11.5h16.5V5.165l8.774,8.335L29.5,21.835V15.5 H13c-4.136,0-7.5,3.364-7.5,7.5s3.364,7.5,7.5,7.5h6.5v4H13z"/><path fill="#4788c7" d="M30,6.329l7.548,7.171L30,20.671V16v-1h-1H13c-4.411,0-8,3.589-8,8s3.589,8,8,8h6v3h-6 C6.935,34,2,29.065,2,23s4.935-11,11-11h16h1v-1V6.329 M29,4v7H13C6.373,11,1,16.373,1,23s5.373,12,12,12h7v-5h-7 c-3.866,0-7-3.134-7-7s3.134-7,7-7h16v7l10-9.5L29,4L29,4z"/></svg>