<svg xmlns="http://www.w3.org/2000/svg" viewBox="0 0 64 64"><path fill="#dadcec" d="M40.78 41.46H46.32V45.46H40.78z" transform="rotate(-45 43.543 43.464)"/><rect width="8.49" height="22.51" x="48.8" y="41.79" fill="#cda1a7" rx="4" ry="4" transform="rotate(-45 53.04 53.04)"/><rect width="4.24" height="22.51" x="49.42" y="43.29" fill="#c4939c" rx="2.12" ry="2.12" transform="rotate(-45 51.542 54.54)"/><path fill="#ffeb9b" d="M25 1A24 24 0 1 0 25 49A24 24 0 1 0 25 1Z"/><path fill="#f6d397" d="M11.14,38.86,38.86,11.14a4,4,0,0,1,6.11.54A24,24,0,0,1,11.68,45,4,4,0,0,1,11.14,38.86Z"/><path fill="#bbdef9" d="M25 7A18 18 0 1 0 25 43A18 18 0 1 0 25 7Z"/><path fill="#d2edff" d="M25 20A5 5 0 1 0 25 30A5 5 0 1 0 25 20Z"/><path fill="#8d6c9f" d="M25,6A19,19,0,0,0,6,25a1,1,0,0,0,2,0A17,17,0,1,1,25,42a1,1,0,0,0,0,2A19,19,0,0,0,25,6Z"/><path fill="#8d6c9f" d="M61.88,54.46,51.54,44.12a5,5,0,0,0-3.41-1.45c-.06,0-.31-.27-.42-.37l-2.54-2.54a25,25,0,1,0-5.41,5.41l2.54,2.54a2.37,2.37,0,0,1,.37.45,5,5,0,0,0,1.46,3.38L54.46,61.88a5,5,0,0,0,7.07,0l.34-.34a5,5,0,0,0,0-7.07ZM2,25A23,23,0,1,1,25,48,23,23,0,0,1,2,25ZM44.12,44.46a5,5,0,0,0-.92,1.32l-1.87-1.87a25.2,25.2,0,0,0,2.59-2.59l1.87,1.87a4.94,4.94,0,0,0-1.32.92ZM60.46,60.12l-.34.34a3,3,0,0,1-4.24,0L45.54,50.12a3,3,0,0,1,0-4.24l.34-.34a3,3,0,0,1,4.24,0L60.46,55.88a3,3,0,0,1,0,4.24Z"/><path fill="#8d6c9f" d="M21.12 39.49a1 1 0 0 0-1.23.71l-.52 1.93a1 1 0 1 0 1.93.52l.52-1.93A1 1 0 0 0 21.12 39.49zM17.5 38a1 1 0 0 0-1.37.37l-1 1.73a1 1 0 0 0 1.73 1l1-1.73A1 1 0 0 0 17.5 38zM13 35.61L11.56 37A1 1 0 1 0 13 38.43L14.39 37A1 1 0 0 0 13 35.61zM12 32.5a1 1 0 0 0-1.37-.37l-1.73 1a1 1 0 0 0 1 1.73l1.73-1A1 1 0 0 0 12 32.5zM10.51 28.88a1 1 0 0 0-1.23-.71l-1.93.52a1 1 0 0 0 .52 1.93l1.93-.52A1 1 0 0 0 10.51 28.88zM24 35a1 1 0 0 0 2 0V26h9a1 1 0 0 0 0-2H26V15a1 1 0 0 0-2 0v9H15a1 1 0 0 0 0 2h9z"/></svg>