<svg xmlns="http://www.w3.org/2000/svg" viewBox="0 0 40 40"><path fill="#dff0fe" d="M14.5 33.5L14.5 1.5 30.793 1.5 38.5 9.207 38.5 33.5z"/><path fill="#4788c7" d="M30.586,2L38,9.414V33H15V2H30.586 M31,1H14v33h25V9L31,1L31,1z"/><path fill="#b6dcfe" d="M30.5 9.5L30.5 1.5 30.793 1.5 38.5 9.207 38.5 9.5z"/><path fill="#4788c7" d="M31,2.414L37.586,9H31V2.414 M31,1h-1v9h9V9L31,1L31,1z"/><g><path fill="#fff" d="M1.5 38.5L1.5 6.5 17.793 6.5 25.5 14.207 25.5 38.5z"/><path fill="#4788c7" d="M17.586,7L25,14.414V38H2V7H17.586 M18,6H1v33h25V14L18,6L18,6z"/></g><g><path fill="#dff0fe" d="M17.5 14.5L17.5 6.5 17.793 6.5 25.5 14.207 25.5 14.5z"/><path fill="#4788c7" d="M18,7.414L24.586,14H18V7.414 M18,6h-1v9h9v-1L18,6L18,6z"/></g></svg>