<svg xmlns="http://www.w3.org/2000/svg" viewBox="0 0 40 40"><path fill="#dff0fe" d="M31.579,34.5c-1.47,0-2.851-0.572-3.89-1.611L10.185,15.384l4.199-4.2L37.699,34.5H31.579z"/><path fill="#4788c7" d="M14.384,11.892L36.492,34h-4.914c-1.336,0-2.591-0.52-3.536-1.464L10.892,15.384L14.384,11.892 M14.384,10.478l-4.907,4.907l17.858,17.858C28.461,34.368,29.987,35,31.579,35h7.328L14.384,10.478L14.384,10.478z"/><path fill="#4788c7" d="M17.626 19.115H24.044V24.647H17.626z" transform="rotate(-45.001 20.835 21.882)"/><path fill="#b6dcfe" d="M9.989,15.188l-0.28,0.076C9.136,15.421,8.561,15.5,8,15.5c-3.584,0-6.5-2.916-6.5-6.5 S4.416,2.5,8,2.5s6.5,2.916,6.5,6.5c0,0.562-0.079,1.137-0.235,1.709l-0.076,0.28l2.237,2.237l-4.276,4.122L9.989,15.188z M8,5.5 C6.07,5.5,4.5,7.07,4.5,9s1.57,3.5,3.5,3.5s3.5-1.57,3.5-3.5S9.93,5.5,8,5.5z"/><path fill="#4788c7" d="M8,3c3.308,0,6,2.692,6,6c0,0.517-0.073,1.048-0.218,1.578l-0.152,0.56l0.41,0.41l1.672,1.672 l-3.557,3.428l-1.608-1.608l-0.41-0.41l-0.56,0.152C9.048,14.927,8.517,15,8,15c-3.308,0-6-2.692-6-6C2,5.692,4.692,3,8,3 M8,13 c2.206,0,4-1.794,4-4s-1.794-4-4-4C5.794,5,4,6.794,4,9S5.794,13,8,13 M8,2C4.134,2,1,5.134,1,9s3.134,7,7,7 c0.638,0,1.253-0.093,1.841-0.253l2.302,2.302l4.998-4.816l-2.393-2.393C14.907,10.253,15,9.638,15,9C15,5.134,11.866,2,8,2L8,2z M8,12c-1.657,0-3-1.343-3-3c0-1.657,1.343-3,3-3c1.657,0,3,1.343,3,3C11,10.657,9.657,12,8,12L8,12z"/><path fill="#dff0fe" d="M10.185,24.616L27.689,7.111c1.039-1.039,2.42-1.611,3.89-1.611h6.12L14.384,28.815L10.185,24.616z"/><path fill="#4788c7" d="M36.492,6L14.384,28.108l-3.492-3.492L28.043,7.464C28.988,6.52,30.243,6,31.579,6H36.492 M38.907,5h-7.328c-1.591,0-3.117,0.632-4.243,1.757L9.478,24.616l4.907,4.907L38.907,5L38.907,5z"/><g><path fill="#b6dcfe" d="M8,37.5c-3.584,0-6.5-2.916-6.5-6.5s2.916-6.5,6.5-6.5c0.561,0,1.136,0.079,1.709,0.235l0.28,0.076 l2.16-2.16l4.276,4.122l-2.237,2.237l0.076,0.28C14.421,29.863,14.5,30.438,14.5,31C14.5,34.584,11.584,37.5,8,37.5z M8,27.5 c-1.93,0-3.5,1.57-3.5,3.5s1.57,3.5,3.5,3.5s3.5-1.57,3.5-3.5S9.93,27.5,8,27.5z"/><path fill="#4788c7" d="M12.155,23.352l3.557,3.428l-1.672,1.672l-0.41,0.41l0.152,0.56C13.927,29.952,14,30.483,14,31 c0,3.308-2.692,6-6,6s-6-2.692-6-6s2.692-6,6-6c0.517,0,1.047,0.073,1.578,0.218l0.56,0.152l0.41-0.41L12.155,23.352 M8,35 c2.206,0,4-1.794,4-4s-1.794-4-4-4c-2.206,0-4,1.794-4,4S5.794,35,8,35 M12.142,21.951l-2.302,2.302C9.253,24.093,8.638,24,8,24 c-3.866,0-7,3.134-7,7s3.134,7,7,7s7-3.134,7-7c0-0.638-0.093-1.253-0.253-1.841l2.393-2.393L12.142,21.951L12.142,21.951z M8,34 c-1.657,0-3-1.343-3-3c0-1.657,1.343-3,3-3c1.657,0,3,1.343,3,3C11,32.657,9.657,34,8,34L8,34z"/></g><path fill="#4788c7" d="M19 18.5A1.5 1.5 0 1 0 19 21.5A1.5 1.5 0 1 0 19 18.5Z"/></svg>