<svg xmlns="http://www.w3.org/2000/svg" viewBox="0 0 40 40"><path fill="#dff0fe" d="M2.5 37.5L2.5 2.5 29.486 2.5 37.5 10.515 37.5 37.5z"/><path fill="#4788c7" d="M29.279,3L37,10.722V37H3V3H29.279 M29.693,2H2v36h36V10.308L29.693,2L29.693,2z"/><path fill="#fff" d="M6.5 19.5H33.5V37.5H6.5z"/><path fill="#4788c7" d="M33 20v17H7V20H33M34 19H6v19h28V19L34 19zM26 2H10v10c0 1.105.895 2 2 2h14V2z"/><path fill="#b6dcfe" d="M13,13.5c-0.827,0-1.5-0.673-1.5-1.5V4c0-0.827,0.673-1.5,1.5-1.5h15.5V12 c0,0.827-0.673,1.5-1.5,1.5H13z"/><path fill="#4788c7" d="M28 3v9c0 .551-.449 1-1 1H13c-.551 0-1-.449-1-1V4c0-.551.449-1 1-1H28M29 2H13c-1.105 0-2 .895-2 2v8c0 1.105.895 2 2 2h14c1.105 0 2-.895 2-2V2L29 2zM27.5 25h-17c-.276 0-.5-.224-.5-.5v0c0-.276.224-.5.5-.5h17c.276 0 .5.224.5.5v0C28 24.776 27.776 25 27.5 25zM29.5 29h-19c-.276 0-.5-.224-.5-.5v0c0-.276.224-.5.5-.5h19c.276 0 .5.224.5.5v0C30 28.776 29.776 29 29.5 29zM29.5 33h-19c-.276 0-.5-.224-.5-.5l0 0c0-.276.224-.5.5-.5h19c.276 0 .5.224.5.5l0 0C30 32.776 29.776 33 29.5 33z"/><path fill="#4788c7" d="M23 5H25V11H23z"/><path fill="#dff0fe" d="M21.383 25.374L23.164 23.593 26.642 26.621 24.644 28.619 18.951 31.05z"/><path fill="#4788c7" d="M23.188,24.276l2.721,2.37l-1.55,1.55L19.902,30.1l1.903-4.441L23.188,24.276 M23.141,22.909 l-2.18,2.18L18,32l6.929-2.959l2.445-2.445L23.141,22.909L23.141,22.909z"/><g><path fill="#4788c7" d="M19.681 28.085L18.002 32.002 21.93 30.325z"/></g><g><path fill="#b6dcfe" d="M34.63,12.116l0.943-0.942c0.435-0.435,1.012-0.674,1.626-0.674c0.615,0,1.192,0.239,1.626,0.674 c0.897,0.896,0.897,2.356,0,3.253l-0.943,0.942L34.63,12.116z"/><path fill="#4788c7" d="M37.2,11c0.481,0,0.933,0.187,1.273,0.527c0.702,0.702,0.702,1.844,0,2.546l-0.589,0.589 l-2.546-2.546l0.589-0.589C36.267,11.187,36.719,11,37.2,11 M37.2,10c-0.717,0-1.433,0.273-1.98,0.82l-1.296,1.296l3.96,3.96 l1.296-1.296c1.094-1.094,1.094-2.866,0-3.96C38.633,10.273,37.916,10,37.2,10L37.2,10z"/></g><g><path fill="#b6dcfe" d="M25.217,28.046c-0.039-0.065-0.085-0.13-0.138-0.192c-0.23-0.27-0.546-0.441-0.944-0.513 c-0.18-0.837-0.842-1.273-1.451-1.427c-0.106-0.508-0.399-0.863-0.765-1.077l11.054-11.063l3.253,3.253L25.217,28.046z"/><path fill="#4788c7" d="M32.974,14.481l2.546,2.546L25.242,27.313c-0.174-0.147-0.403-0.288-0.702-0.384 c-0.261-0.741-0.846-1.188-1.442-1.408c-0.098-0.287-0.246-0.528-0.428-0.727L32.974,14.481 M32.974,13.066L20.961,25.089 c0,0,0.005,0,0.015,0c0.144,0,1.251,0.04,1.251,1.263c0,0,1.454,0.045,1.454,1.452c1.446,0,1.248,1.238,1.248,1.238l12.004-12.014 L32.974,13.066L32.974,13.066z"/></g><g><path fill="#dff0fe" d="M33.576 12.396H37.032000000000004V16.997H33.576z" transform="rotate(-44.992 35.306 14.697)"/><path fill="#4788c7" d="M34.9,12.555l2.546,2.546l-1.737,1.737l-2.546-2.546L34.9,12.555 M34.9,11.14l-3.151,3.151 l3.96,3.96L38.86,15.1L34.9,11.14L34.9,11.14z"/></g></svg>