<svg xmlns="http://www.w3.org/2000/svg" viewBox="0 0 40 40"><path fill="#fff" d="M6.5,37.5v-35h18.293l8.707,8.707v25.309c0,0.543-0.441,0.984-0.984,0.984H6.5z"/><path fill="#4788c7" d="M24.586,3L33,11.414v25.101C33,36.783,32.783,37,32.516,37H7V3H24.586 M25,2H6v36h26.516C33.335,38,34,37.335,34,36.516V11L25,2L25,2z"/><path fill="#dff0fe" d="M24.5 11.5L24.5 2.5 24.793 2.5 33.5 11.207 33.5 11.5z"/><path fill="#4788c7" d="M25,3.414L32.586,11H25V3.414 M25,2h-1v10h10v-1L25,2L25,2z"/><path fill="#fff" d="M32 20.032L32 26 34 26 34 21zM22 36L22.175 38 27 38 27 36z"/><path fill="#98ccfd" d="M29.045 37.318L26.217 37.718 25.723 34.905 23.2 33.566 24.455 31 23.2 28.434 25.723 27.095 26.217 24.282 29.045 24.682 31.098 22.696 33.151 24.682 35.979 24.282 36.473 27.095 38.996 28.434 37.741 31 38.996 33.566 36.473 34.905 35.979 37.718 33.151 37.318 31.098 39.304z"/><path fill="#4788c7" d="M31.098 23.391l1.53 1.48.351.34.484-.068 2.107-.298.368 2.096.084.481.432.229 1.88.997-.935 1.912L37.185 31l.215.439.935 1.912-1.88.997-.432.229-.084.481-.368 2.096-2.107-.298-.484-.068-.351.34-1.53 1.48-1.53-1.48-.351-.34-.484.068-2.107.298-.368-2.096-.084-.481-.432-.229-1.88-.997.935-1.912L25.011 31l-.215-.439-.935-1.912 1.88-.997.432-.229.084-.481.368-2.096 2.107.298.484.068.351-.34L31.098 23.391M31.098 22l-2.225 2.152-3.065-.434-.535 3.049-2.735 1.451L23.898 31l-1.36 2.781 2.735 1.451.535 3.049 3.065-.434L31.098 40l2.225-2.152 3.065.434.535-3.049 2.735-1.451L38.298 31l1.36-2.781-2.735-1.451-.535-3.049-3.065.434L31.098 22 31.098 22zM33.5 18L33.5 18c.275 0 .5.225.5.5v3c0 .275-.225.5-.5.5l0 0c-.275 0-.5-.225-.5-.5v-3C33 18.225 33.225 18 33.5 18zM17.5 37h5c.275 0 .5.225.5.5l0 0c0 .275-.225.5-.5.5h-5c-.275 0-.5-.225-.5-.5l0 0C17 37.225 17.225 37 17.5 37z"/></svg>