<svg xmlns="http://www.w3.org/2000/svg" viewBox="0 0 40 40"><path fill="#b6dcfe" d="M6.364,37.5c-0.476,0-0.864-0.396-0.864-0.885V3.385C5.5,2.896,5.888,2.5,6.364,2.5H16.54 C16.513,2.668,16.5,2.834,16.5,3c0,1.93,1.57,3.5,3.5,3.5s3.5-1.57,3.5-3.5c0-0.166-0.013-0.332-0.04-0.5h10.176 c0.476,0,0.864,0.396,0.864,0.885v33.23c0,0.488-0.388,0.885-0.864,0.885H6.364z"/><path fill="#4788c7" d="M33.636,3C33.837,3,34,3.173,34,3.385v33.231C34,36.827,33.837,37,33.636,37H6.364 C6.163,37,6,36.827,6,36.615V3.385C6,3.173,6.163,3,6.364,3H16c0,2.206,1.794,4,4,4s4-1.794,4-4H33.636 M33.636,2h-10.82 C22.928,2.314,23,2.647,23,3c0,1.657-1.343,3-3,3s-3-1.343-3-3c0-0.353,0.072-0.686,0.184-1H6.364C5.611,2,5,2.62,5,3.385v33.231 C5,37.38,5.611,38,6.364,38h27.273C34.389,38,35,37.38,35,36.615V3.385C35,2.62,34.389,2,33.636,2L33.636,2z"/><path fill="#fff" d="M9 6H31V34H9z"/><g><path fill="#98ccfd" d="M15,7.5c-0.827,0-1.5-0.673-1.5-1.5V2.5h4.036l0.039-0.107C17.526,2.587,17.5,2.79,17.5,3 c0,1.379,1.122,2.5,2.5,2.5s2.5-1.121,2.5-2.5c0-0.21-0.026-0.413-0.075-0.607L22.464,2.5H26.5V6c0,0.827-0.673,1.5-1.5,1.5H15z M19.993,0.5 M19.997,0.5c0.001,0,0.006,0,0.007,0C20.002,0.5,19.998,0.5,19.997,0.5z"/><path fill="#4788c7" d="M26,3v3c0,0.551-0.449,1-1,1H15c-0.551,0-1-0.449-1-1V3h3c0,1.654,1.346,3,3,3s3-1.346,3-3H26 M20,0 c-1.304,0-2.403,0.837-2.816,2H13v4c0,1.105,0.895,2,2,2h10c1.105,0,2-0.895,2-2V2h-4.184C22.403,0.837,21.304,0,20,0L20,0z M20,5 c-1.103,0-2-0.897-2-2c0-1.103,0.897-2,2-2s2,0.897,2,2C22,4.103,21.103,5,20,5L20,5z"/></g></svg>