<svg xmlns="http://www.w3.org/2000/svg" viewBox="0 0 40 40"><path fill="#dff0fe" d="M20.5,34.5v-4H27c4.136,0,7.5-3.364,7.5-7.5s-3.364-7.5-7.5-7.5H10.5v6.335L1.726,13.5L10.5,5.165 V11.5H27c6.341,0,11.5,5.159,11.5,11.5S33.341,34.5,27,34.5H20.5z"/><path fill="#4788c7" d="M10,6.329V11v1h1h16c6.065,0,11,4.935,11,11c0,6.065-4.935,11-11,11h-6v-3h6c4.411,0,8-3.589,8-8 s-3.589-8-8-8H11h-1v1v4.671L2.452,13.5L10,6.329 M11,4L1,13.5L11,23v-7h16c3.866,0,7,3.134,7,7s-3.134,7-7,7h-7v5h7 c6.627,0,12-5.373,12-12v0c0-6.627-5.373-12-12-12H11V4L11,4z"/></svg>